# xmcd CD database file
#
# Track frame offsets:
#	150
#	20007
#	39705
#	59522
#
# Disc length: 1053 seconds
#
# Revision: 0
# Processed by: cddbd v1.5PL3 Copyright (c) Steve Scherf et al.
# Submitted via: CDex 1.50beta8
#
DISCID=33041b04
DTITLE=Do As Infinity - 魔法の言葉 〜Would you marry me？〜
DYEAR=2003
DGENRE=Pop
TTITLE0=魔法の言葉 〜Would you marry me？〜
TTITLE1=mellow amber
TTITLE2=魔法の言葉 〜Would you marry me？〜 (Instrumental)
TTITLE3=mellow amber (Instrumental)
EXTD=YEAR: 2003
EXTT0=
EXTT1=
EXTT2=
EXTT3=
PLAYORDER=
